<?xml version="1.0" encoding="utf-8"?>
<!-- Generator: Adobe Illustrator 16.0.3, SVG Export Plug-In . SVG Version: 6.00 Build 0)  -->
<svg version="1.2" baseProfile="tiny" xmlns="http://www.w3.org/2000/svg" xmlns:xlink="http://www.w3.org/1999/xlink" x="0px"
	 y="0px" width="50px" height="50px" viewBox="0 0 50 50" xml:space="preserve">
<g id="Ebene_1" display="none">
	<path display="inline" fill="#3C3C3C" d="M0.706,24.02L19.338,4.854c0,0,2.218-2.341,2.218,0.198c0,2.54,0,8.691,0,8.691
		s1.492,0,3.786,0c6.564,0,18.483,0,23.34,0c0,0,1.318-0.345,1.318,1.658c0,2.002,0,18.267,0,19.703c0,1.438-1.1,1.395-1.1,1.395
		c-4.731,0-17.063,0-23.39,0c-2.069,0-3.412,0-3.412,0s0,4.931,0,8.029c0,3.087-2.301,0.758-2.301,0.758S2.375,28.42,0.559,26.608
		C-0.779,25.27,0.706,24.02,0.706,24.02z"/>
</g>
<g id="Ebene_2">
	<g>
		<path fill="#3C3C3C" d="M23.642,7.242l7.241,7.24v-4.245l0.315,0.123c6.366,2.517,10.884,8.727,10.884,15.998
			c0,9.499-7.699,17.196-17.191,17.196c-9.501,0-17.2-7.697-17.2-17.196c0-6.984,3.805-12.995,9.791-15.687l-0.07-6.888
			C17.359,3.808,1.473,9.205,1.473,26.473C1.473,39.467,12.01,50,24.999,50c12.997,0,23.528-10.533,23.528-23.527
			c0-10.866-7.356-20.011-17.363-22.716L30.883,3.7V0L23.642,7.242z"/>
	</g>
</g>
</svg>
