<?xml version="1.0" encoding="utf-8"?>
<!-- Generator: Adobe Illustrator 16.0.3, SVG Export Plug-In . SVG Version: 6.00 Build 0)  -->
<svg version="1.2" baseProfile="tiny" xmlns="http://www.w3.org/2000/svg" xmlns:xlink="http://www.w3.org/1999/xlink" x="0px"
	 y="0px" width="50px" height="50px" viewBox="0 0 50 50" xml:space="preserve">
<g id="Ebene_1" display="none">
	<path display="inline" fill="#3C3C3C" d="M0.706,24.02L19.338,4.854c0,0,2.218-2.341,2.218,0.198c0,2.54,0,8.691,0,8.691
		s1.492,0,3.786,0c6.564,0,18.483,0,23.34,0c0,0,1.318-0.345,1.318,1.658c0,2.002,0,18.267,0,19.703c0,1.438-1.1,1.395-1.1,1.395
		c-4.731,0-17.063,0-23.39,0c-2.069,0-3.412,0-3.412,0s0,4.931,0,8.029c0,3.087-2.301,0.758-2.301,0.758S2.375,28.42,0.559,26.608
		C-0.779,25.27,0.706,24.02,0.706,24.02z"/>
</g>
<g id="Ebene_2">
	<g>
		<path fill="#3C3C3C" d="M40.875,12.178H9.122c-0.895,0-1.622,0.832-1.622,1.858v21.935c0,1.021,0.727,1.852,1.622,1.852h31.753
			c0.898,0,1.625-0.83,1.625-1.852V14.036C42.5,13.01,41.773,12.178,40.875,12.178z M39.381,34.015c0,0.84-0.598,1.522-1.336,1.522
			H11.953c-0.735,0-1.332-0.683-1.332-1.522V15.991c0-0.842,0.597-1.526,1.332-1.526h26.092c0.738,0,1.336,0.684,1.336,1.526V34.015
			z"/>
		<polygon fill="#3C3C3C" points="33.154,22.246 33.154,22.246 31.611,24.946 29.426,23.7 29.43,23.697 24.711,20.995 
			23.835,22.527 22.341,25.05 18.052,22.444 16.945,24.272 16.933,24.268 12.498,31.221 14.427,32.563 18.698,25.588 21.143,27.076 
			21.141,27.082 23.165,28.28 25.578,24.202 27.738,25.438 27.734,25.442 32.452,28.145 32.471,28.116 32.498,28.133 34.803,24.102 
			34.805,24.102 37.502,19.382 35.458,18.212 		"/>
	</g>
</g>
</svg>
