<?xml version="1.0" encoding="utf-8"?>
<!-- Generator: Adobe Illustrator 16.0.3, SVG Export Plug-In . SVG Version: 6.00 Build 0)  -->
<svg version="1.2" baseProfile="tiny" xmlns="http://www.w3.org/2000/svg" xmlns:xlink="http://www.w3.org/1999/xlink" x="0px"
	 y="0px" width="50px" height="50px" viewBox="0 0 50 50" xml:space="preserve">
<g id="Ebene_1" display="none">
	<path display="inline" fill="#3C3C3C" d="M0.706,24.02L19.338,4.854c0,0,2.218-2.341,2.218,0.198c0,2.54,0,8.691,0,8.691
		s1.492,0,3.786,0c6.564,0,18.483,0,23.34,0c0,0,1.318-0.345,1.318,1.658c0,2.002,0,18.267,0,19.703c0,1.438-1.1,1.395-1.1,1.395
		c-4.731,0-17.063,0-23.39,0c-2.069,0-3.412,0-3.412,0s0,4.931,0,8.029c0,3.087-2.301,0.758-2.301,0.758S2.375,28.42,0.559,26.608
		C-0.779,25.27,0.706,24.02,0.706,24.02z"/>
</g>
<g id="Ebene_2">
	<g>
		<g>
			<path fill="#3C3C3C" d="M20.737,42.5c-1.088,0-2.117-0.509-2.778-1.382L9.024,29.32c-1.162-1.535-0.859-3.72,0.675-4.882
				c1.537-1.163,3.721-0.858,4.883,0.675l5.876,7.759L35.237,9.143c1.018-1.632,3.166-2.132,4.802-1.116
				c1.634,1.017,2.133,3.167,1.115,4.801l-17.458,28.03c-0.606,0.975-1.653,1.587-2.8,1.64C20.843,42.499,20.79,42.5,20.737,42.5z"
				/>
		</g>
	</g>
</g>
</svg>
